<?xml version="1.0" encoding="utf-8"?>
<!-- Generator: Adobe Illustrator 23.0.3, SVG Export Plug-In . SVG Version: 6.00 Build 0)  -->
<svg version="1.1" id="Layer_1" xmlns="http://www.w3.org/2000/svg" xmlns:xlink="http://www.w3.org/1999/xlink" x="0px" y="0px"
	 viewBox="0 0 90 90" style="enable-background:new 0 0 90 90;" xml:space="preserve">
<style type="text/css">
	.st0{fill-rule:evenodd;clip-rule:evenodd;fill:#FAA61A;}
	.st1{fill:none;stroke:#1A1C1E;stroke-width:3.3846;stroke-linecap:round;stroke-linejoin:round;}
	.st2{fill-rule:evenodd;clip-rule:evenodd;fill:#191C1E;}
	.st3{fill-rule:evenodd;clip-rule:evenodd;fill:#E6EBF4;}
</style>
<g>
	<path class="st0" d="M83.9,88.4H6.5c-2.5,0-4.5-2-4.5-4.6V6.4c0-2.5,2-4.6,4.5-4.6h77.4c2.5,0,4.5,2,4.5,4.6v77.5
		C88.4,86.4,86.4,88.4,83.9,88.4"/>
	<path class="st1" d="M2,39.5V6.4c0-2.5,2-4.6,4.5-4.6h77.4c2.5,0,4.5,2,4.5,4.6v77.5c0,2.5-2,4.6-4.5,4.6H6.5c-2.5,0-4.5-2-4.5-4.6
		V39.5"/>
	<path class="st2" d="M13.4,9.8c0,1.9-1.5,3.4-3.4,3.4s-3.4-1.5-3.4-3.4S8.1,6.4,10,6.4S13.4,7.9,13.4,9.8 M13.4,80.5
		c0,1.9-1.5,3.4-3.4,3.4s-3.4-1.5-3.4-3.4s1.5-3.4,3.4-3.4S13.4,78.6,13.4,80.5 M83.9,9.8c0,1.9-1.5,3.4-3.4,3.4s-3.4-1.5-3.4-3.4
		s1.5-3.4,3.4-3.4S83.9,7.9,83.9,9.8 M83.9,80.5c0,1.9-1.5,3.4-3.4,3.4s-3.4-1.5-3.4-3.4s1.5-3.4,3.4-3.4S83.9,78.6,83.9,80.5"/>
	<path class="st3" d="M27.4,25.1c-0.6-0.5-0.7-1.3-0.2-1.9c4.9-5.8,10.8-8.1,16.4-8.1c23.1,0,27.5,31.1,5.8,35.2
		c-0.6,0.1-1,0.6-1.1,1.2l-0.6,4.9c-0.1,0.7-0.7,1.2-1.3,1.2h-7.9c-0.7,0-1.3-0.6-1.4-1.3l-0.6-12.1c0-0.9,0.7-1.5,1.6-1.4
		c1.7,0.3,3,0.3,3.7,0.3c12.1,0,12.5-17.6-0.3-16.5c-2.3,0.2-4.6,1.2-6.5,3.3c-0.5,0.5-1.3,0.6-1.9,0.1
		C33.1,29.9,27.4,25.1,27.4,25.1z M49.6,68.4c0,3.8-3.1,6.8-6.8,6.8s-6.8-3.1-6.8-6.8c0-3.8,3.1-6.8,6.8-6.8S49.6,64.6,49.6,68.4"/>
	<path class="st1" d="M27.4,25.1c-0.6-0.5-0.7-1.3-0.2-1.9c4.9-5.8,10.8-8.1,16.4-8.1c23.1,0,27.5,31.1,5.8,35.2
		c-0.6,0.1-1,0.6-1.1,1.2l-0.6,4.9c-0.1,0.7-0.7,1.2-1.3,1.2h-7.9c-0.7,0-1.3-0.6-1.4-1.3l-0.6-12.1c0-0.9,0.7-1.5,1.6-1.4
		c1.7,0.3,3,0.3,3.7,0.3c12.1,0,12.5-17.6-0.3-16.5c-2.3,0.2-4.6,1.2-6.5,3.3c-0.5,0.5-1.3,0.6-1.9,0.1
		C33.1,29.9,27.4,25.1,27.4,25.1z M49.6,68.4c0,3.8-3.1,6.8-6.8,6.8s-6.8-3.1-6.8-6.8c0-3.8,3.1-6.8,6.8-6.8S49.6,64.6,49.6,68.4z"
		/>
</g>
</svg>
