<?xml version="1.0" encoding="utf-8"?>
<!-- Generator: Adobe Illustrator 23.0.3, SVG Export Plug-In . SVG Version: 6.00 Build 0)  -->
<svg version="1.1" id="Layer_1" xmlns="http://www.w3.org/2000/svg" xmlns:xlink="http://www.w3.org/1999/xlink" x="0px" y="0px"
	 viewBox="0 0 92 82" style="enable-background:new 0 0 92 82;" xml:space="preserve">
<style type="text/css">
	.st0{fill-rule:evenodd;clip-rule:evenodd;fill:#E6EBF4;}
	.st1{fill:none;stroke:#1A1C1E;stroke-width:3;stroke-linecap:round;stroke-linejoin:round;}
	.st2{fill-rule:evenodd;clip-rule:evenodd;fill:#99A6AD;}
</style>
<g>
	<path class="st0" d="M37.7,23.9c1.3-1.2,1.6-3.3,0.5-4.8C31.6,9.5,24.4,4.2,16.8,3.4C8.4,2.5,2.8,7.5,2.5,7.9c0,0,0,0,0,0
		C1,9.3,0.9,11.6,2.3,13.1c1.4,1.5,3.7,1.6,5.2,0.2c0.2-0.2,3.5-3.1,8.6-2.5c5.2,0.6,10.8,4.9,16,12.5c1.2,1.7,3.5,2.1,5.2,0.9
		C37.4,24.1,37.6,24,37.7,23.9L37.7,23.9z"/>
	<path class="st1" d="M16.1,10.8c5.2,0.6,10.8,4.9,16,12.5c1.2,1.7,3.5,2.1,5.2,0.9c0.2-0.1,0.3-0.2,0.4-0.3
		c1.3-1.2,1.6-3.3,0.5-4.8C31.6,9.5,24.4,4.2,16.8,3.4C8.4,2.5,2.8,7.5,2.5,7.9c0,0,0,0,0,0"/>
	<path class="st2" d="M27.7,41.1L53,17.5L36.2,2.6c-1-0.8-2.4-0.8-3.3,0.1L14.4,19.9c-0.9,0.9-1.1,2.3-0.3,3.3
		C14.1,23.2,27.7,41.1,27.7,41.1z"/>
	<path class="st1" d="M27.7,41.1L53,17.5L36.2,2.6c-1-0.8-2.4-0.8-3.3,0.1L14.4,19.9c-0.9,0.9-1.1,2.3-0.3,3.3
		C14.1,23.2,27.7,41.1,27.7,41.1z"/>
	<path class="st2" d="M25.7,68.1c14,15,37.4,15.8,52.4,1.8c15-14,15.8-37.5,1.8-52.6c-14-15-37.4-15.8-52.4-1.8
		C12.6,29.5,11.8,53,25.7,68.1L25.7,68.1z"/>
	<path class="st1" d="M86.7,27.5c-1.9-4.1-4.1-7.5-6.8-10.2c-14-15-37.4-15.8-52.4-1.8c-15,14-15.8,37.5-1.8,52.6
		c14,15,37.4,15.8,52.4,1.8C90,58.8,93,41.6,86.7,27.5z"/>
	<path class="st0" d="M26,47.4c-0.1-0.2-0.1-0.4-0.2-0.6h0c0,0,0,0,0,0c-0.9-2.4-1.4-4.8-1.2-7.4c0.2-2.6,0.9-5.8,2.9-7.7
		c1.9-1.7,4.4,0.2,4,2.5c-0.3,1.9-1.4,3.6-1.5,5.7c-0.2,2,0.1,3.9,0.7,5.8C31.6,48.5,27.5,49.6,26,47.4C26,47.3,26,47.3,26,47.4
		L26,47.4z"/>
</g>
</svg>
