<?xml version="1.0" encoding="utf-8"?>
<!-- Generator: Adobe Illustrator 23.0.3, SVG Export Plug-In . SVG Version: 6.00 Build 0)  -->
<svg version="1.1" id="Layer_1" xmlns="http://www.w3.org/2000/svg" xmlns:xlink="http://www.w3.org/1999/xlink" x="0px" y="0px"
	 viewBox="0 0 118 202" style="enable-background:new 0 0 118 202;" xml:space="preserve">
<style type="text/css">
	.st0{fill-rule:evenodd;clip-rule:evenodd;fill:#E6EBF4;}
	.st1{filter:url(#Adobe_OpacityMaskFilter);}
	.st2{fill-rule:evenodd;clip-rule:evenodd;fill:#FFFFFF;}
	.st3{mask:url(#b_1_);fill-rule:evenodd;clip-rule:evenodd;fill:#C5CBD8;}
	.st4{filter:url(#Adobe_OpacityMaskFilter_1_);}
	.st5{mask:url(#d_1_);fill-rule:evenodd;clip-rule:evenodd;fill:#43B581;}
	.st6{filter:url(#Adobe_OpacityMaskFilter_2_);}
	.st7{mask:url(#f_1_);fill:none;stroke:#1A1C1E;stroke-width:3;}
	.st8{filter:url(#Adobe_OpacityMaskFilter_3_);}
	.st9{mask:url(#h_1_);fill:none;stroke:#1A1C1E;stroke-width:3;}
	.st10{filter:url(#Adobe_OpacityMaskFilter_4_);}
	.st11{mask:url(#j_1_);fill-rule:evenodd;clip-rule:evenodd;fill:#E6EBF4;}
	.st12{fill:none;stroke:#1A1C1E;stroke-width:3;}
</style>
<g>
	<path class="st0" d="M73.5,88.8V75.9H44.1v12.8c0,7.3-4.4,14-11.3,16.7c-18.3,7.1-31.3,24.9-31.3,45.7c0,27.1,22,49.1,49.1,49.1H67
		c27.1,0,49.1-22,49.1-49.1c0-20.8-13-38.6-31.3-45.7C77.9,102.8,73.5,96.1,73.5,88.8L73.5,88.8z"/>
	<defs>
		<filter id="Adobe_OpacityMaskFilter" filterUnits="userSpaceOnUse" x="44.1" y="75.9" width="29.5" height="12">
			<feColorMatrix  type="matrix" values="1 0 0 0 0  0 1 0 0 0  0 0 1 0 0  0 0 0 1 0"/>
		</filter>
	</defs>
	<mask maskUnits="userSpaceOnUse" x="44.1" y="75.9" width="29.5" height="12" id="b_1_">
		<g class="st1">
			<path id="a_1_" class="st2" d="M0,201.7h117.6V0H0V201.7z"/>
		</g>
	</mask>
	<path class="st3" d="M44.1,87.9h29.5v-12H44.1"/>
	<defs>
		<filter id="Adobe_OpacityMaskFilter_1_" filterUnits="userSpaceOnUse" x="17.9" y="126.2" width="81.8" height="57.6">
			<feColorMatrix  type="matrix" values="1 0 0 0 0  0 1 0 0 0  0 0 1 0 0  0 0 0 1 0"/>
		</filter>
	</defs>
	<mask maskUnits="userSpaceOnUse" x="17.9" y="126.2" width="81.8" height="57.6" id="d_1_">
		<g class="st4">
			<path id="c_1_" class="st2" d="M0,201.7h117.6V0H0V201.7z"/>
		</g>
	</mask>
	<path class="st5" d="M82.8,139.3C62.3,142.4,46.9,119,27,128.5c-5.6,5.9-9.1,13.8-9.1,22.6c0,18.1,14.7,32.7,32.7,32.7H67
		c18.1,0,32.7-14.6,32.7-32.7c0-4-0.7-7.9-2.1-11.4c-1-2.6-3.9-3.7-6.4-2.7C88.6,138.1,85.7,138.9,82.8,139.3"/>
	<defs>
		<filter id="Adobe_OpacityMaskFilter_2_" filterUnits="userSpaceOnUse" x="16.4" y="124.7" width="84.8" height="60.6">
			<feColorMatrix  type="matrix" values="1 0 0 0 0  0 1 0 0 0  0 0 1 0 0  0 0 0 1 0"/>
		</filter>
	</defs>
	<mask maskUnits="userSpaceOnUse" x="16.4" y="124.7" width="84.8" height="60.6" id="f_1_">
		<g class="st6">
			<path id="e_1_" class="st2" d="M0,201.7h117.6V0H0V201.7z"/>
		</g>
	</mask>
	<path class="st7" d="M82.8,139.3C62.3,142.4,46.9,119,27,128.5c-5.6,5.9-9.1,13.8-9.1,22.6c0,18.1,14.7,32.7,32.7,32.7H67
		c18.1,0,32.7-14.6,32.7-32.7c0-4-0.7-7.9-2.1-11.4c-1-2.6-3.9-3.7-6.4-2.7C88.6,138.1,85.7,138.9,82.8,139.3z"/>
	<defs>
		<filter id="Adobe_OpacityMaskFilter_3_" filterUnits="userSpaceOnUse" x="0" y="74.4" width="117.6" height="127.3">
			<feColorMatrix  type="matrix" values="1 0 0 0 0  0 1 0 0 0  0 0 1 0 0  0 0 0 1 0"/>
		</filter>
	</defs>
	<mask maskUnits="userSpaceOnUse" x="0" y="74.4" width="117.6" height="127.3" id="h_1_">
		<g class="st8">
			<path id="g_1_" class="st2" d="M0,201.7h117.6V0H0V201.7z"/>
		</g>
	</mask>
	<path class="st9" d="M73.5,88.8V75.9H44.1v12.8c0,7.3-4.4,14-11.3,16.7c-18.3,7.1-31.3,24.9-31.3,45.7c0,27.1,22,49.1,49.1,49.1H67
		c27.1,0,49.1-22,49.1-49.1c0-20.8-13-38.6-31.3-45.7C77.9,102.8,73.5,96.1,73.5,88.8L73.5,88.8z"/>
	<defs>
		<filter id="Adobe_OpacityMaskFilter_4_" filterUnits="userSpaceOnUse" x="29.3" y="59.3" width="58.9" height="19.6">
			<feColorMatrix  type="matrix" values="1 0 0 0 0  0 1 0 0 0  0 0 1 0 0  0 0 0 1 0"/>
		</filter>
	</defs>
	<mask maskUnits="userSpaceOnUse" x="29.3" y="59.3" width="58.9" height="19.6" id="j_1_">
		<g class="st10">
			<path id="i_1_" class="st2" d="M0,201.7h117.6V0H0V201.7z"/>
		</g>
	</mask>
	<path class="st11" d="M78.4,78.9H39.1c-5.4,0-9.8-4.4-9.8-9.8s4.4-9.8,9.8-9.8h39.3c5.4,0,9.8,4.4,9.8,9.8S83.8,78.9,78.4,78.9"/>
	<path class="st12" d="M78.4,59.3H52.9H39.1c-5.4,0-9.8,4.4-9.8,9.8s4.4,9.8,9.8,9.8h39.3c5.4,0,9.8-4.4,9.8-9.8
		S83.8,59.3,78.4,59.3z"/>
</g>
</svg>
