<?xml version="1.0" encoding="utf-8"?>
<!-- Generator: Adobe Illustrator 23.0.3, SVG Export Plug-In . SVG Version: 6.00 Build 0)  -->
<svg version="1.1" id="Layer_1" xmlns="http://www.w3.org/2000/svg" xmlns:xlink="http://www.w3.org/1999/xlink" x="0px" y="0px"
	 viewBox="0 0 80 80" style="enable-background:new 0 0 80 80;" xml:space="preserve">
<style type="text/css">
	.st0{fill-rule:evenodd;clip-rule:evenodd;fill:#EFCE43;}
	.st1{fill-rule:evenodd;clip-rule:evenodd;fill:#FFE36C;}
	.st2{fill-rule:evenodd;clip-rule:evenodd;fill:none;}
	.st3{fill:none;stroke:#1A1C1E;stroke-width:3;stroke-linecap:round;stroke-linejoin:round;}
	.st4{fill-rule:evenodd;clip-rule:evenodd;fill:#CCDAFF;}
</style>
<g>
	<path class="st0" d="M46.3,57.9v16.9H34.2c-4.4,0-8.6-1.1-12.3-3.1c-1.8-1-3.5-2.2-5-3.5c-1.2-1-2.2-2.2-3.2-3.4
		c-0.9-1.1-1.7-2.3-2.3-3.5c-0.6-1.1-1.1-2.2-1.6-3.4c-0.4-1.1-0.8-2.3-1.1-3.5c-0.3-1.1-0.4-2.2-0.5-3.4c0-0.2-0.1-0.5-0.1-0.7
		v-0.1c0-0.2,0-0.4,0-0.6c0-0.2,0-0.4,0-0.6V31.7c0-0.5,0-0.9,0-1.3v-0.2c0-0.4,0-0.8,0.1-1.2c0.1-0.8,0.2-1.6,0.3-2.3
		c0.2-1.2,0.5-2.3,0.9-3.4c0.4-1.2,0.9-2.4,1.5-3.5c0.6-1.2,1.3-2.3,2.1-3.4c0.9-1.2,1.9-2.4,3-3.4c1.4-1.3,2.9-2.5,4.5-3.5
		c2.7-1.7,5.7-2.8,9-3.4c1.5-0.3,3-0.4,4.6-0.4h12.1c0,0,0,0,0,0.1c0,0,0,0.1,0,0.3c0,0.5,0,1.7,0,3.4c0,1,0,2.2,0,3.5v1.4
		c0,0.6,0,1.3,0,2v3.4c0,1.1,0,2.3,0,3.5v2.2c0,0,0,0,0,0.1c0,0,0,0,0,0.1c0,0,0,0,0,0c0,0,0,0,0,0c0,0.2,0,0.4,0,0.6v0.3
		c0,0,0,0,0,0.1c0,0,0,0,0,0c0,0,0,0,0,0c0,1.1,0,2.3,0,3.5v3.5c0,1.2,0,2.3,0,3.5V51c0,0,0,0,0,0v0c0,0,0,0,0,0v0.1
		c0,0.1,0,0.1,0,0.2v1c0,0.2,0,0.4,0,0.6V54c0,0,0,0.1,0,0.1c0,0,0,0,0,0.1c0,0,0,0,0,0.1c0,0,0,0,0,0c0,0,0,0,0,0c0,0,0,0,0,0
		c0,0,0,0,0,0c0,0,0,0,0,0c0,0,0,0,0,0c0,0,0,0,0,0c0,0,0,0,0,0c0,0,0,0,0,0c0,0,0,0,0,0c0,0,0,0,0,0c0,0,0,0,0,0c0,0,0,0,0,0
		c0,0,0,0,0,0c0,0,0,0,0,0c0,0,0,0.1,0,0.1c0,0,0,0,0,0c0,0,0,0,0,0c0,0,0,0,0,0c0,0,0,0,0,0c0,0,0,0,0,0c0,0,0,0,0,0c0,0,0,0,0,0
		c0,0,0,0,0,0v0c0,0,0,0,0,0c0,0,0,0,0,0v0C46.3,56.1,46.3,57,46.3,57.9z"/>
	<g transform="translate(8 5.61)">
		<path class="st1" d="M50.2,3.1C50.2,3.1,50.1,3.1,50.2,3.1c-0.9-0.5-1.8-1-2.8-1.4c-1.3-0.5-2.7-0.9-4.2-1.2H21.5
			c-3.2,0.6-6.3,1.7-9,3.4h39C51.1,3.6,50.7,3.4,50.2,3.1z M57.6,8.7c-0.3-0.3-0.7-0.6-1-0.9c0-0.1-0.1-0.1-0.2-0.2
			c-0.1-0.1-0.2-0.2-0.2-0.2H8c-1.1,1-2.1,2.2-3,3.4h54.3C58.8,10.1,58.2,9.4,57.6,8.7z M61.4,14.2H3c-0.6,1.1-1.1,2.3-1.5,3.5h61.5
			C62.5,16.5,62,15.3,61.4,14.2z M63.8,21.1H0.6c-0.2,0.8-0.3,1.5-0.3,2.3c0,0.4-0.1,0.8-0.1,1.2h64.1
			C64.2,23.4,64.1,22.2,63.8,21.1z M0.1,28.1v3.5h64.2v-3.5H0.1z M0.1,35v3.5h64.2V35H0.1z M0.1,41.9v1.5c0,0.2,0,0.4,0,0.6
			c0,0.2,0,0.4,0,0.6v0.1c0,0.2,0,0.5,0,0.7h64c0-0.3,0-0.6,0.1-0.9c0-0.4,0-0.9,0-1.3v-1.3H0.1z M0.7,48.8c0.3,1.2,0.6,2.4,1,3.5
			h61c0.4-1.1,0.8-2.3,1-3.5H0.7z M3.3,55.7c0.7,1.2,1.4,2.4,2.3,3.5h53.3c0.9-1.1,1.7-2.3,2.3-3.5H3.3z M8.7,62.6
			c1.5,1.3,3.2,2.5,4.9,3.5h37c1.8-1,3.5-2.2,5-3.5H8.7z"/>
		<path class="st2" d="M71.8,0.5v3.4H51.6c-0.5-0.3-0.9-0.5-1.4-0.8c0,0,0,0,0,0c-0.9-0.5-1.8-1-2.7-1.4c-1.3-0.5-2.7-0.9-4.2-1.2
			H71.8z"/>
		<path class="st2" d="M71.8,7.4v3.4H59.3c-0.5-0.7-1.1-1.4-1.7-2.1c-0.3-0.3-0.7-0.6-1-0.9c0-0.1-0.1-0.1-0.2-0.2
			c-0.1-0.1-0.2-0.2-0.2-0.2H71.8z"/>
		<path class="st2" d="M71.8,14.2v3.5h-8.9c-0.4-1.2-0.9-2.4-1.5-3.5H71.8z"/>
		<path class="st2" d="M71.8,21.1v3.5h-7.5c-0.1-1.2-0.2-2.4-0.4-3.5H71.8z"/>
		<rect x="64.3" y="28.1" class="st2" width="7.5" height="3.5"/>
		<rect x="64.3" y="35" class="st2" width="7.5" height="3.5"/>
		<path class="st2" d="M71.8,41.9v3.5h-7.6c0-0.3,0-0.6,0.1-0.9c0-0.4,0-0.9,0-1.3v-1.3H71.8z"/>
		<path class="st2" d="M71.8,48.8v3.5h-9.1c0.4-1.1,0.8-2.3,1-3.5H71.8z"/>
		<path class="st2" d="M71.8,55.7v3.5h-13c0.9-1.1,1.7-2.3,2.3-3.5H71.8z"/>
		<path class="st2" d="M71.8,62.6v3.5H50.7c1.8-1,3.5-2.2,5-3.5H71.8z"/>
		<path class="st2" d="M13.6,66.1H-4.5v-3.5H8.7C10.2,63.9,11.9,65.1,13.6,66.1z"/>
		<path class="st2" d="M5.6,59.2H-4.5v-3.5h7.8C3.9,56.9,4.7,58.1,5.6,59.2z"/>
		<path class="st2" d="M1.7,52.3h-6.2v-3.5h5.2C0.9,50,1.3,51.2,1.7,52.3z"/>
		<path class="st2" d="M0.2,45.4h-4.7v-3.5h4.6v1.5c0,0.2,0,0.4,0,0.6c0,0.2,0,0.4,0,0.6v0.1C0.2,44.9,0.2,45.2,0.2,45.4z"/>
		<rect x="-4.5" y="35" class="st2" width="4.6" height="3.5"/>
		<rect x="-4.5" y="28.1" class="st2" width="4.6" height="3.5"/>
		<path class="st2" d="M0.6,21.1c-0.2,0.8-0.3,1.5-0.3,2.3c0,0.4-0.1,0.8-0.1,1.2h-4.6v-3.5H0.6z"/>
		<path class="st2" d="M3,14.2c-0.6,1.1-1.1,2.3-1.5,3.5h-6v-3.5H3z"/>
		<path class="st2" d="M8,7.4c-1.1,1-2.1,2.2-3,3.4h-9.6V7.4H8z"/>
		<path class="st2" d="M21.5,0.5c-3.2,0.6-6.3,1.7-9,3.4H-4.5V0.5H21.5z"/>
	</g>
	<path class="st3" d="M46.3,57.9v16.9c0,0.1,0,0.1,0,0.1H34.1c-4.5,0-8.8-1.2-12.5-3.2c-1.8-1-3.4-2.2-4.9-3.5
		c-1.1-1-2.2-2.2-3.2-3.4c-0.9-1.1-1.6-2.3-2.3-3.5c-0.6-1.1-1.1-2.2-1.6-3.4c-0.4-1.1-0.8-2.3-1-3.5c-0.2-1.1-0.4-2.2-0.5-3.4
		c0-0.2,0-0.5,0-0.7v-0.1c0-0.2,0-0.4,0-0.6c0-0.2,0-0.4,0-0.6V31.7c0-0.5,0-0.9,0-1.3c0-0.1,0-0.1,0-0.2c0-0.4,0.1-0.8,0.1-1.2
		c0.1-0.8,0.2-1.6,0.4-2.3c0.2-1.2,0.5-2.3,0.9-3.4c0.4-1.2,0.9-2.4,1.5-3.5c0.6-1.2,1.3-2.3,2.1-3.4c0.9-1.2,1.9-2.4,3-3.4
		c1.4-1.3,2.9-2.5,4.6-3.5c2.8-1.7,6-2.9,9.4-3.4c1.3-0.2,2.6-0.3,4-0.3h12.1c0,0,0,0.1,0,0.3c0,0.5,0,1.7,0,3.4c0,1,0,2.2,0,3.5
		v1.4c0,0.6,0,1.3,0,2v3.4c0,1.1,0,2.3,0,3.5v2.2c0,0,0,0,0,0.1c0,0,0,0,0,0.1c0,0,0,0,0,0c0,0,0,0,0,0c0,0.2,0,0.4,0,0.6v0.3
		c0,0,0,0,0,0.1c0,0,0,0,0,0c0,0,0,0,0,0c0,1.1,0,2.3,0,3.5v3.5c0,1.2,0,2.3,0,3.5V51c0,0,0,0,0,0v0c0,0,0,0,0,0v0.1
		c0,0.1,0,0.1,0,0.2v1c0,0.2,0,0.4,0,0.6V54c0,0,0,0.1,0,0.1c0,0,0,0,0,0.1c0,0,0,0,0,0.1c0,0,0,0,0,0c0,0,0,0,0,0c0,0,0,0,0,0
		c0,0,0,0,0,0c0,0,0,0,0,0c0,0,0,0,0,0c0,0,0,0,0,0c0,0,0,0,0,0c0,0,0,0,0,0c0,0,0,0,0,0c0,0,0,0,0,0c0,0,0,0,0,0c0,0,0,0,0,0
		c0,0,0,0,0,0c0,0,0,0,0,0c0,0,0,0.1,0,0.1c0,0,0,0,0,0c0,0,0,0,0,0c0,0,0,0,0,0c0,0,0,0,0,0c0,0,0,0,0,0c0,0,0,0,0,0c0,0,0,0,0,0
		c0,0,0,0,0,0v0c0,0,0,0,0,0c0,0,0,0,0,0v0C46.3,56.1,46.3,57,46.3,57.9z"/>
	<path class="st4" d="M72.3,31.6v17.2c0,0.4,0,0.9,0,1.3c0,0.3,0,0.6-0.1,0.9c-0.1,1.2-0.3,2.3-0.5,3.4c-0.3,1.2-0.6,2.4-1,3.5
		c-0.4,1.2-1,2.3-1.6,3.4c-0.7,1.2-1.5,2.4-2.3,3.5c-1,1.2-2,2.4-3.2,3.4c-1.5,1.3-3.2,2.5-5,3.5c-3.7,2-7.9,3.2-12.4,3.2
		c-0.8,0-1.5,0-2.3-0.1c-3.7-0.3-7.1-1.4-10.2-3.1c-1.8-1-3.4-2.2-4.9-3.5c-1.2-1-2.2-2.2-3.2-3.4c-0.9-1.1-1.6-2.3-2.3-3.5
		c-0.6-1.1-1.1-2.2-1.6-3.4c-0.4-1.1-0.8-2.3-1-3.5c0-0.1-0.1-0.3-0.1-0.4c-0.1-0.7-0.3-1.5-0.3-2.2c0-0.3-0.1-0.5-0.1-0.8
		c-0.1-0.7-0.1-1.5-0.1-2.2V31.5c0-0.4,0-0.8,0-1.1c0-0.1,0-0.1,0-0.2c0.1-1.2,0.2-2.4,0.5-3.5c0.2-1.2,0.5-2.3,0.9-3.4
		c0.4-1.2,0.9-2.4,1.5-3.5c0.6-1.2,1.3-2.3,2.1-3.4c0.9-1.2,1.9-2.4,3-3.4c1.4-1.3,2.9-2.5,4.6-3.5c2.8-1.7,6-2.9,9.4-3.4
		c1.3-0.2,2.7-0.3,4-0.3s2.7,0.1,4,0.3c2.8,0.4,5.5,1.3,7.9,2.6c0,0,0,0,0,0c0.5,0.2,1,0.5,1.4,0.8c1.7,1,3.2,2.2,4.6,3.5
		c0.1,0.1,0.2,0.1,0.2,0.2c0.1,0,0.1,0.1,0.2,0.2c0.9,0.9,1.8,2,2.6,3c0.8,1.1,1.5,2.2,2.1,3.4c0.6,1.1,1.1,2.3,1.5,3.5
		c0.4,1.1,0.7,2.2,0.9,3.4c0.2,1.1,0.4,2.3,0.5,3.5c0,0.1,0,0.2,0,0.3C72.3,30.9,72.3,31.3,72.3,31.6z"/>
	<path class="st1" d="M72.3,31.6v17.2c0,0.4,0,0.9,0,1.3c0,0.3,0,0.6-0.1,0.9c-0.1,1.2-0.3,2.3-0.5,3.4c-0.3,1.2-0.6,2.4-1,3.5
		c-0.4,1.2-1,2.3-1.6,3.4c-0.7,1.2-1.5,2.4-2.3,3.5c-1,1.2-2,2.4-3.2,3.4c-1.5,1.3-3.2,2.5-5,3.5c-3.7,2-7.9,3.2-12.4,3.2
		c-0.8,0-1.5,0-2.3-0.1c-3.7-0.3-7.1-1.4-10.2-3.1c-1.8-1-3.4-2.2-4.9-3.5c-1.2-1-2.2-2.2-3.2-3.4c-0.9-1.1-1.6-2.3-2.3-3.5
		c-0.6-1.1-1.1-2.2-1.6-3.4c-0.4-1.1-0.8-2.3-1-3.5c0-0.1-0.1-0.3-0.1-0.4c-0.1-0.7-0.3-1.5-0.3-2.2c0-0.3-0.1-0.5-0.1-0.8
		c-0.1-0.7-0.1-1.5-0.1-2.2V31.5c0-0.4,0-0.8,0-1.1c0-0.1,0-0.1,0-0.2c0.1-1.2,0.2-2.4,0.5-3.5c0.2-1.2,0.5-2.3,0.9-3.4
		c0.4-1.2,0.9-2.4,1.5-3.5c0.6-1.2,1.3-2.3,2.1-3.4c0.9-1.2,1.9-2.4,3-3.4c1.4-1.3,2.9-2.5,4.6-3.5c2.8-1.7,6-2.9,9.4-3.4
		c1.3-0.2,2.7-0.3,4-0.3s2.7,0.1,4,0.3c2.8,0.4,5.5,1.3,7.9,2.6c0,0,0,0,0,0c0.5,0.2,1,0.5,1.4,0.8c1.7,1,3.2,2.2,4.6,3.5
		c0.1,0.1,0.2,0.1,0.2,0.2c0.1,0,0.1,0.1,0.2,0.2c0.9,0.9,1.8,2,2.6,3c0.8,1.1,1.5,2.2,2.1,3.4c0.6,1.1,1.1,2.3,1.5,3.5
		c0.4,1.1,0.7,2.2,0.9,3.4c0.2,1.1,0.4,2.3,0.5,3.5c0,0.1,0,0.2,0,0.3C72.3,30.9,72.3,31.3,72.3,31.6z"/>
	<path class="st3" d="M72.3,31.6v17.2c0,0.4,0,0.9,0,1.3c0,0.3,0,0.6-0.1,0.9c-0.1,1.2-0.3,2.3-0.5,3.4c-0.3,1.2-0.6,2.4-1,3.5
		c-0.4,1.2-1,2.3-1.6,3.4c-0.7,1.2-1.5,2.4-2.4,3.5c-1,1.2-2,2.4-3.2,3.4c-1.5,1.4-3.2,2.5-5.1,3.5c-3.6,1.9-7.7,3-12.1,3
		c-4.4,0-8.5-1.1-12.1-3c-1.9-1-3.6-2.1-5.1-3.5c-1.2-1-2.3-2.2-3.2-3.4c-0.9-1.1-1.7-2.3-2.3-3.5c-0.6-1.1-1.1-2.2-1.6-3.4
		c-0.4-1.1-0.8-2.3-1-3.5c0-0.1-0.1-0.3-0.1-0.4c-0.1-0.7-0.3-1.5-0.3-2.2c0-0.3-0.1-0.5-0.1-0.8c-0.1-0.7-0.1-1.5-0.1-2.2V31.5
		c0-0.4,0-0.8,0-1.1c0-0.1,0-0.1,0-0.2c0-1.2,0.2-2.4,0.3-3.5c0.2-1.2,0.4-2.3,0.7-3.4c0.3-1.2,0.8-2.4,1.2-3.5
		c0.5-1.2,1.1-2.3,1.8-3.4c0.8-1.2,1.7-2.3,2.7-3.4c1.3-1.3,2.7-2.5,4.3-3.5c2.6-1.6,5.6-2.8,9-3.4C41,6,41.8,5.9,42.5,5.8
		c0.3,0,0.7-0.1,1.1-0.1c0.8-0.1,1.7-0.1,2.6-0.1c1.7,0,3.4,0.2,5,0.5c1.4,0.3,2.8,0.7,4.2,1.2c0.9,0.4,1.8,0.9,2.7,1.4c0,0,0,0,0,0
		C58.6,9,59,9.2,59.5,9.5c1.6,1,3.2,2.2,4.7,3.5c0.1,0.1,0.2,0.1,0.3,0.2c0.1,0,0.1,0.1,0.2,0.2c0.3,0.3,0.7,0.6,1,0.9
		c0.6,0.7,1.2,1.4,1.7,2.1c0.8,1.1,1.5,2.2,2.1,3.4c0.6,1.1,1.1,2.3,1.5,3.5c0.4,1.1,0.7,2.2,0.9,3.4c0.2,1.1,0.4,2.3,0.4,3.5
		c0,0.1,0,0.2,0,0.3C72.3,30.9,72.3,31.3,72.3,31.6z"/>
	<path class="st0" d="M46.3,66.2C36.8,66.2,29,58.5,29,49V31.7c0-9.5,7.8-17.3,17.3-17.3s17.4,7.8,17.4,17.3V49
		C63.7,58.4,55.9,66.2,46.3,66.2L46.3,66.2z"/>
	<path class="st3" d="M46.3,66.2C36.8,66.2,29,58.5,29,49V31.7c0-9.5,7.8-17.3,17.3-17.3s17.4,7.8,17.4,17.3v8.7V49
		C63.7,58.4,55.9,66.2,46.3,66.2z"/>
	<path class="st1" d="M47.3,55.3L47.3,55.3c-1.5,0-2.7-1.2-2.7-2.7V28c0-1.5,1.2-2.7,2.7-2.7l0,0c1.5,0,2.7,1.2,2.7,2.7v24.6
		C50,54.1,48.8,55.3,47.3,55.3z"/>
</g>
</svg>
