<?xml version="1.0" encoding="utf-8"?>
<!-- Generator: Adobe Illustrator 22.1.0, SVG Export Plug-In . SVG Version: 6.00 Build 0)  -->
<svg version="1.1" id="Layer_1" xmlns="http://www.w3.org/2000/svg" xmlns:xlink="http://www.w3.org/1999/xlink" x="0px" y="0px"
	 viewBox="0 0 160 110" style="enable-background:new 0 0 160 110;" xml:space="preserve">
<style type="text/css">
	.st0{fill:#E6EBF4;}
	.st1{fill:none;stroke:#1A1C1E;stroke-width:3;stroke-linecap:round;stroke-linejoin:round;}
	.st2{fill:#99A6AD;}
	.st3{fill:#738BD7;}
	.st4{fill:#F6989D;}
	.st5{fill:#FAA61A;}
	.st6{fill:#43B581;}
</style>
<g>
	<path class="st0" d="M124.5,4H34.9C18.4,4,5,17.4,5,33.9v52.9c0,10.7,8.7,19.5,19.4,19.5h0c6.5,0,12.6-3.3,16.2-8.7l11.9-17.9
		c1.4-2.1,3.7-3.3,6.2-3.3h41.7c2.5,0,4.8,1.3,6.2,3.3l11.9,17.9c3.6,5.4,9.7,8.7,16.2,8.7h0c10.7,0,19.4-8.7,19.4-19.5V33.9
		C154.3,17.4,141,4,124.5,4"/>
	<path class="st1" d="M5,86.8c0,10.7,8.7,19.5,19.4,19.5h0c6.5,0,12.6-3.3,16.2-8.7l11.9-17.9c1.4-2.1,3.7-3.3,6.2-3.3h41.7
		c2.5,0,4.8,1.3,6.2,3.3l11.9,17.9c3.6,5.4,9.7,8.7,16.2,8.7h0c10.7,0,19.4-8.7,19.4-19.5V33.9C154.3,17.4,141,4,124.5,4h-17.1
		 M107.3,4L34.9,4C18.4,4,5,17.4,5,33.9v52.9"/>
	<path class="st2" d="M52.3,33.3h-7c-0.8,0-1.5-0.7-1.5-1.5v-7c0-0.8-0.7-1.5-1.5-1.5H30.8c-0.8,0-1.5,0.7-1.5,1.5v7
		c0,0.8-0.7,1.5-1.5,1.5h-7c-0.8,0-1.5,0.7-1.5,1.5v11.5c0,0.8,0.7,1.5,1.5,1.5h7c0.8,0,1.5,0.7,1.5,1.5v7c0,0.8,0.7,1.5,1.5,1.5
		h11.5c0.8,0,1.5-0.7,1.5-1.5v-7c0-0.8,0.7-1.5,1.5-1.5h7c0.8,0,1.5-0.7,1.5-1.5V34.8C53.8,34,53.1,33.3,52.3,33.3"/>
	<path class="st1" d="M52.3,33.3h-7c-0.8,0-1.5-0.7-1.5-1.5v-7c0-0.8-0.7-1.5-1.5-1.5H30.8c-0.8,0-1.5,0.7-1.5,1.5v7
		c0,0.8-0.7,1.5-1.5,1.5h-7c-0.8,0-1.5,0.7-1.5,1.5v11.5c0,0.8,0.7,1.5,1.5,1.5h7c0.8,0,1.5,0.7,1.5,1.5v7c0,0.8,0.7,1.5,1.5,1.5
		h11.5c0.8,0,1.5-0.7,1.5-1.5v-7c0-0.8,0.7-1.5,1.5-1.5h7c0.8,0,1.5-0.7,1.5-1.5V34.8C53.8,34,53.1,33.3,52.3,33.3z"/>
	<path class="st3" d="M126.5,54.1c0,3.1-2.5,5.6-5.6,5.6s-5.6-2.5-5.6-5.6s2.5-5.6,5.6-5.6S126.5,51,126.5,54.1"/>
	<path class="st1" d="M126.5,54.1c0,3.1-2.5,5.6-5.6,5.6s-5.6-2.5-5.6-5.6s2.5-5.6,5.6-5.6S126.5,51,126.5,54.1z"/>
	<path class="st4" d="M107.3,46.2c-3.1,0-5.6-2.5-5.6-5.6s2.5-5.6,5.6-5.6s5.6,2.5,5.6,5.6S110.4,46.2,107.3,46.2"/>
	<path class="st5" d="M126.5,27c0,3.1-2.5,5.6-5.6,5.6s-5.6-2.5-5.6-5.6s2.5-5.6,5.6-5.6S126.5,23.9,126.5,27"/>
	<path class="st1" d="M126.5,27c0,3.1-2.5,5.6-5.6,5.6s-5.6-2.5-5.6-5.6s2.5-5.6,5.6-5.6S126.5,23.9,126.5,27z M107.3,46.2
		c-3.1,0-5.6-2.5-5.6-5.6s2.5-5.6,5.6-5.6s5.6,2.5,5.6,5.6S110.4,46.2,107.3,46.2z"/>
	<path class="st6" d="M134.3,46.2c-3.1,0-5.6-2.5-5.6-5.6s2.5-5.6,5.6-5.6s5.6,2.5,5.6,5.6S137.4,46.2,134.3,46.2"/>
	<path class="st1" d="M134.3,46.2c-3.1,0-5.6-2.5-5.6-5.6s2.5-5.6,5.6-5.6s5.6,2.5,5.6,5.6S137.4,46.2,134.3,46.2z M74.3,58.4h-6.1
		c-1.3,0-2.4-1.1-2.4-2.5s1.1-2.5,2.4-2.5h6.1c1.3,0,2.4,1.1,2.4,2.5S75.6,58.4,74.3,58.4z M91.2,58.4h-6.1c-1.3,0-2.4-1.1-2.4-2.5
		s1.1-2.5,2.4-2.5h6.1c1.3,0,2.4,1.1,2.4,2.5S92.5,58.4,91.2,58.4z"/>
</g>
</svg>
