<?xml version="1.0" encoding="utf-8"?>
<!-- Generator: Adobe Illustrator 22.1.0, SVG Export Plug-In . SVG Version: 6.00 Build 0)  -->
<svg version="1.1" id="Layer_1" xmlns="http://www.w3.org/2000/svg" xmlns:xlink="http://www.w3.org/1999/xlink" x="0px" y="0px"
	 viewBox="0 0 579 470" style="enable-background:new 0 0 579 470;" xml:space="preserve">
<style type="text/css">
	.st0{fill:#D3D8E5;}
	.st1{fill:none;stroke:#1A1C1E;stroke-width:3;stroke-linecap:round;stroke-linejoin:round;}
	.st2{fill:#E6EBF4;}
	.st3{filter:url(#Adobe_OpacityMaskFilter);}
	.st4{fill:#FFFFFF;}
	.st5{mask:url(#b_1_);fill:#36393E;}
	.st6{filter:url(#Adobe_OpacityMaskFilter_1_);}
	.st7{mask:url(#b_3_);fill:#878B97;}
	.st8{filter:url(#Adobe_OpacityMaskFilter_2_);}
	.st9{mask:url(#b_6_);fill:#FAA61A;}
	.st10{filter:url(#Adobe_OpacityMaskFilter_3_);}
	.st11{mask:url(#b_48_);fill:none;stroke:#1A1C1E;stroke-width:3;stroke-linecap:round;stroke-linejoin:round;}
</style>
<g>
	<path class="st0" d="M312,390c0,12.4-10.1,22.5-22.5,22.5S267,402.4,267,390v-19.5c0-12.4,10.1-22.5,22.5-22.5s22.5,10.1,22.5,22.5
		V390z M248.3,428.4h82.5V323.8h-82.5V428.4z"/>
	<path class="st1" d="M312,390c0,12.4-10.1,22.5-22.5,22.5S267,402.4,267,390v-19.5c0-12.4,10.1-22.5,22.5-22.5s22.5,10.1,22.5,22.5
		V390z M248.3,323.8v104.6h82.5V323.8L248.3,323.8L248.3,323.8z"/>
	<path class="st2" d="M574.5,338.8H4.5c-1.7,0-3-1.3-3-3V4.5c0-1.7,1.3-3,3-3h570c1.7,0,3,1.3,3,3v331.3
		C577.5,337.5,576.2,338.8,574.5,338.8"/>
	<path class="st1" d="M543.3,1.5h31.2c1.7,0,3,1.3,3,3v331.3c0,1.7-1.3,3-3,3H4.5c-1.7,0-3-1.3-3-3V4.5c0-1.7,1.3-3,3-3L543.3,1.5"
		/>
	<path class="st2" d="M447,424.6H132c-4.1,0-7.5,3.4-7.5,7.5v28.5c0,4.1,3.4,7.5,7.5,7.5h315c4.1,0,7.5-3.4,7.5-7.5v-28.5
		C454.5,428,451.1,424.6,447,424.6"/>
	<path class="st1" d="M447,424.6H132c-4.1,0-7.5,3.4-7.5,7.5v28.5c0,4.1,3.4,7.5,7.5,7.5h315c4.1,0,7.5-3.4,7.5-7.5v-28.5
		C454.5,428,451.1,424.6,447,424.6z"/>
	<defs>
		<filter id="Adobe_OpacityMaskFilter" filterUnits="userSpaceOnUse" x="18.2" y="16.5" width="543.6" height="307.3">
			<feColorMatrix  type="matrix" values="1 0 0 0 0  0 1 0 0 0  0 0 1 0 0  0 0 0 1 0"/>
		</filter>
	</defs>
	<mask maskUnits="userSpaceOnUse" x="18.2" y="16.5" width="543.6" height="307.3" id="b_1_">
		<g class="st3">
			<path id="a_1_" class="st4" d="M0,469.6h579V0H0V469.6z"/>
		</g>
	</mask>
	<path class="st5" d="M18.2,323.8h543.6V16.5H18.2"/>
	<defs>
		<filter id="Adobe_OpacityMaskFilter_1_" filterUnits="userSpaceOnUse" x="157.7" y="299.9" width="0" height="0">
			<feColorMatrix  type="matrix" values="1 0 0 0 0  0 1 0 0 0  0 0 1 0 0  0 0 0 1 0"/>
		</filter>
	</defs>
	<mask maskUnits="userSpaceOnUse" x="157.7" y="299.9" width="0" height="0" id="b_3_">
		<g class="st6">
			<path id="a_3_" class="st4" d="M0,469.6h579V0H0V469.6z"/>
		</g>
	</mask>
	<path class="st7" d="M157.7,299.9"/>
	<defs>
		<filter id="Adobe_OpacityMaskFilter_2_" filterUnits="userSpaceOnUse" x="227.7" y="192.7" width="0" height="0">
			<feColorMatrix  type="matrix" values="1 0 0 0 0  0 1 0 0 0  0 0 1 0 0  0 0 0 1 0"/>
		</filter>
	</defs>
	<mask maskUnits="userSpaceOnUse" x="227.7" y="192.7" width="0" height="0" id="b_6_">
		<g class="st8">
			<path id="a_6_" class="st4" d="M0,469.6h579V0H0V469.6z"/>
		</g>
	</mask>
	<path class="st9" d="M227.7,192.7"/>
	<defs>
		<filter id="Adobe_OpacityMaskFilter_3_" filterUnits="userSpaceOnUse" x="15.7" y="15" width="547.5" height="310.3">
			<feColorMatrix  type="matrix" values="1 0 0 0 0  0 1 0 0 0  0 0 1 0 0  0 0 0 1 0"/>
		</filter>
	</defs>
	<mask maskUnits="userSpaceOnUse" x="15.7" y="15" width="547.5" height="310.3" id="b_48_">
		<g class="st10">
			<path id="a_48_" class="st4" d="M0,469.6h579V0H0V469.6z"/>
		</g>
	</mask>
	<path class="st11" d="M17.2,323.8h544.5V16.5H17.2V323.8z"/>
</g>
</svg>
