<?xml version="1.0" encoding="utf-8"?>
<!-- Generator: Adobe Illustrator 22.1.0, SVG Export Plug-In . SVG Version: 6.00 Build 0)  -->
<svg version="1.1" id="Layer_1" xmlns="http://www.w3.org/2000/svg" xmlns:xlink="http://www.w3.org/1999/xlink" x="0px" y="0px"
	 viewBox="0 0 608 350" style="enable-background:new 0 0 608 350;" xml:space="preserve">
<style type="text/css">
	.st0{fill:#E6EBF4;}
	.st1{fill:none;stroke:#1A1C1E;stroke-width:3;stroke-linecap:round;stroke-linejoin:round;}
	.st2{fill:#D3D8E5;}
	.st3{filter:url(#Adobe_OpacityMaskFilter);}
	.st4{fill:#FFFFFF;}
	.st5{mask:url(#b_1_);fill:#36393E;}
	.st6{filter:url(#Adobe_OpacityMaskFilter_1_);}
	.st7{mask:url(#b_31_);fill:#D3D8E5;}
</style>
<g>
	<path class="st0" d="M549.9,321.5H58.1v-305c0-8.3,6.7-15,15-15h461.8c8.3,0,15,6.7,15,15V321.5L549.9,321.5z"/>
	<path class="st1" d="M549.9,179.5v142.1H58.1v-305c0-8.3,6.7-15,15-15h461.8c8.3,0,15,6.7,15,15V179.5"/>
	<path class="st2" d="M591.5,347.8h-575c-8.3,0-15-6.7-15-15v-9c0-1.7,1.3-3,3-3h599c1.7,0,3,1.3,3,3v9
		C606.5,341,599.8,347.8,591.5,347.8"/>
	<path class="st1" d="M240.8,347.8l-224.3,0c-8.3,0-15-6.7-15-15v-9c0-1.7,1.3-3,3-3h599c1.7,0,3,1.3,3,3v9c0,8.3-6.7,15-15,15
		H240.9"/>
	<path class="st0" d="M329.4,332.3h-50.9c-7.5,0-14.5-3.8-18.7-10l-0.8-1.2h90l-0.8,1.2C344,328.6,337,332.3,329.4,332.3"/>
	<path class="st1" d="M329.4,332.3h-50.9c-7.5,0-14.5-3.8-18.7-10l-0.8-1.2h90l-0.8,1.2C344,328.6,337,332.3,329.4,332.3
		L329.4,332.3z"/>
	<defs>
		<filter id="Adobe_OpacityMaskFilter" filterUnits="userSpaceOnUse" x="78.9" y="27.4" width="449.8" height="277.5">
			<feColorMatrix  type="matrix" values="1 0 0 0 0  0 1 0 0 0  0 0 1 0 0  0 0 0 1 0"/>
		</filter>
	</defs>
	<mask maskUnits="userSpaceOnUse" x="78.9" y="27.4" width="449.8" height="277.5" id="b_1_">
		<g class="st3">
			<path id="a_1_" class="st4" d="M0,349.3h608V0H0V349.3z"/>
		</g>
	</mask>
	<path class="st5" d="M78.9,304.8h449.8V27.4H78.9"/>
	<defs>
		<filter id="Adobe_OpacityMaskFilter_1_" filterUnits="userSpaceOnUse" x="309.4" y="12.4" width="7.5" height="7.5">
			<feColorMatrix  type="matrix" values="1 0 0 0 0  0 1 0 0 0  0 0 1 0 0  0 0 0 1 0"/>
		</filter>
	</defs>
	<mask maskUnits="userSpaceOnUse" x="309.4" y="12.4" width="7.5" height="7.5" id="b_31_">
		<g class="st6">
			<path id="a_31_" class="st4" d="M0,349.3h608V0H0V349.3z"/>
		</g>
	</mask>
	<path class="st7" d="M316.9,16.1c0,2.1-1.7,3.7-3.7,3.7s-3.7-1.7-3.7-3.7s1.7-3.7,3.7-3.7S316.9,14.1,316.9,16.1"/>
</g>
</svg>
