<?xml version="1.0" encoding="utf-8"?>
<!-- Generator: Adobe Illustrator 22.1.0, SVG Export Plug-In . SVG Version: 6.00 Build 0)  -->
<svg version="1.1" id="Layer_1" xmlns="http://www.w3.org/2000/svg" xmlns:xlink="http://www.w3.org/1999/xlink" x="0px" y="0px"
	 viewBox="0 0 142 251" style="enable-background:new 0 0 142 251;" xml:space="preserve">
<style type="text/css">
	.st0{fill:#E6EBF4;}
	.st1{fill:none;stroke:#1A1C1E;stroke-width:3;stroke-linecap:round;stroke-linejoin:round;}
	.st2{fill:#D3D8E5;}
	.st3{filter:url(#Adobe_OpacityMaskFilter);}
	.st4{fill:#FFFFFF;}
	.st5{mask:url(#b_1_);fill:#36393E;}
	.st6{filter:url(#Adobe_OpacityMaskFilter_1_);}
	.st7{mask:url(#b_23_);fill:none;stroke:#1A1C1E;stroke-width:3;stroke-linecap:round;stroke-linejoin:round;}
</style>
<g>
	<path class="st0" d="M10.1,40.8H3.3c-1,0-1.8-0.8-1.8-1.8v-5c0-1,0.8-1.8,1.8-1.8h6.8V40.8z M10.1,67.8H3.3c-1,0-1.8-0.8-1.8-1.8
		V53c0-1,0.8-1.8,1.8-1.8h6.8V67.8z M138.7,70.8h-6.8V54.2h6.8c1,0,1.8,0.8,1.8,1.8V69C140.5,70,139.7,70.8,138.7,70.8"/>
	<path class="st1" d="M138.7,70.8h-6.8V54.2h6.8c1,0,1.8,0.8,1.8,1.8V69C140.5,70,139.7,70.8,138.7,70.8z"/>
	<path class="st1" d="M10.1,40.8H3.3c-1,0-1.8-0.8-1.8-1.8v-5c0-1,0.8-1.8,1.8-1.8h6.8V40.8z M1.5,66V53c0-1,0.8-1.8,1.8-1.8h6.8
		v16.7 M10.1,69H3.3c-1,0-1.8-0.8-1.8-1.8v-2.9"/>
	<path class="st0" d="M117.7,249.5H23.6c-9.5,0-17.1-7.7-17.1-17.1V18.6c0-9.5,7.7-17.1,17.1-17.1h94.1c9.5,0,17.1,7.7,17.1,17.1
		v213.8C134.8,241.8,127.1,249.5,117.7,249.5"/>
	<path class="st1" d="M6.4,175.5l0-156.9c0-9.5,7.7-17.1,17.1-17.1h94.1c9.5,0,17.1,7.7,17.1,17.1v213.8c0,9.5-7.7,17.1-17.1,17.1
		H23.6c-9.5,0-17.1-7.7-17.1-17.1V175.5"/>
	<path class="st2" d="M73,13.3c0,0.9-0.7,1.6-1.6,1.6c-0.9,0-1.6-0.7-1.6-1.6s0.7-1.6,1.6-1.6C72.2,11.7,73,12.4,73,13.3 M60.7,21.2
		c0,1-0.8,1.8-1.8,1.8c-1,0-1.8-0.8-1.8-1.8s0.8-1.8,1.8-1.8S60.7,20.2,60.7,21.2 M84.5,22.3H69.7c-0.6,0-1.1-0.5-1.1-1.1
		c0-0.6,0.5-1.1,1.1-1.1h14.9c0.6,0,1.1,0.5,1.1,1.1C85.7,21.8,85.2,22.3,84.5,22.3 M80.4,233.1c0-5-4-9-9-9s-9,4-9,9s4,9,9,9
		S80.4,238.1,80.4,233.1"/>
	<defs>
		<filter id="Adobe_OpacityMaskFilter" filterUnits="userSpaceOnUse" x="16.2" y="32.7" width="110.8" height="184">
			<feColorMatrix  type="matrix" values="1 0 0 0 0  0 1 0 0 0  0 0 1 0 0  0 0 0 1 0"/>
		</filter>
	</defs>
	<mask maskUnits="userSpaceOnUse" x="16.2" y="32.7" width="110.8" height="184" id="b_1_">
		<g class="st3">
			<path id="a_1_" class="st4" d="M0,251h142V0H0V251z"/>
		</g>
	</mask>
	<path class="st5" d="M16.2,216.7H127v-184H16.2"/>
	<defs>
		<filter id="Adobe_OpacityMaskFilter_1_" filterUnits="userSpaceOnUse" x="14.7" y="31.2" width="113.8" height="187">
			<feColorMatrix  type="matrix" values="1 0 0 0 0  0 1 0 0 0  0 0 1 0 0  0 0 0 1 0"/>
		</filter>
	</defs>
	<mask maskUnits="userSpaceOnUse" x="14.7" y="31.2" width="113.8" height="187" id="b_23_">
		<g class="st6">
			<path id="a_23_" class="st4" d="M0,251h142V0H0V251z"/>
		</g>
	</mask>
	<path class="st7" d="M16.2,216.7H127v-184H16.2V216.7z"/>
</g>
</svg>
